<svg width="42" height="42" viewBox="0 0 42 42" fill="none" xmlns="http://www.w3.org/2000/svg">
<path d="M0 21C0 9.40202 9.40202 0 21 0C32.598 0 42 9.40202 42 21C42 32.598 32.598 42 21 42C9.40202 42 0 32.598 0 21Z" fill="#F2E8DE"/>
<path d="M27.0951 25.0978C26.8733 25.6102 26.6107 26.0818 26.3066 26.5155C25.8919 27.1067 25.5524 27.5159 25.2908 27.7431C24.8852 28.1161 24.4506 28.3071 23.9853 28.318C23.6512 28.318 23.2484 28.2229 22.7794 28.0301C22.3089 27.8382 21.8765 27.7431 21.4812 27.7431C21.0666 27.7431 20.6219 27.8382 20.1462 28.0301C19.6698 28.2229 19.2861 28.3234 18.9926 28.3334C18.5464 28.3524 18.1016 28.1559 17.6577 27.7431C17.3743 27.496 17.0199 27.0723 16.5953 26.472C16.1397 25.8311 15.7652 25.0878 15.4718 24.2404C15.1575 23.3251 15 22.4388 15 21.5808C15 20.5978 15.2124 19.7501 15.6378 19.0397C15.9721 18.4691 16.4169 18.0189 16.9736 17.6885C17.5303 17.3581 18.1318 17.1897 18.7795 17.1789C19.134 17.1789 19.5988 17.2885 20.1764 17.504C20.7523 17.7202 21.1221 17.8298 21.2843 17.8298C21.4055 17.8298 21.8163 17.7016 22.5128 17.4461C23.1714 17.209 23.7273 17.1109 24.1827 17.1496C25.4166 17.2492 26.3437 17.7356 26.9602 18.6119C25.8566 19.2806 25.3107 20.2172 25.3216 21.4186C25.3315 22.3544 25.671 23.1332 26.3382 23.7515C26.6406 24.0385 26.9783 24.2603 27.354 24.4179C27.2725 24.6541 27.1865 24.8805 27.0951 25.0978ZM24.2651 13.9614C24.2651 14.6949 23.9971 15.3798 23.4629 16.0137C22.8183 16.7673 22.0387 17.2027 21.1932 17.134C21.1824 17.046 21.1762 16.9534 21.1762 16.8561C21.1762 16.1519 21.4827 15.3983 22.0271 14.7822C22.2989 14.4702 22.6445 14.2108 23.0637 14.0038C23.4819 13.8 23.8776 13.6873 24.2497 13.668C24.2605 13.766 24.2651 13.8641 24.2651 13.9614V13.9614Z" fill="black"/>
</svg>
