<svg width="40" height="36" viewBox="0 0 40 36" fill="none" xmlns="http://www.w3.org/2000/svg">
<path d="M20 35.35C19.5333 35.35 19.0587 35.2667 18.576 35.1C18.0933 34.9333 17.668 34.6667 17.3 34.3L13.85 31.15C10.3167 27.9167 7.12467 24.7087 4.274 21.526C1.42333 18.3433 -0.0013324 14.8347 9.35016e-07 11C9.35016e-07 7.86667 1.05 5.25 3.15 3.15C5.25 1.05 7.86667 0 11 0C12.7667 0 14.4333 0.374666 16 1.124C17.5667 1.87333 18.9 2.89867 20 4.2C21.1 2.9 22.4333 1.87533 24 1.126C25.5667 0.376667 27.2333 0.00133333 29 0C32.1333 0 34.75 1.05 36.85 3.15C38.95 5.25 40 7.86667 40 11C40 14.8333 38.5833 18.35 35.75 21.55C32.9167 24.75 29.7 27.9667 26.1 31.2L22.7 34.3C22.3333 34.6667 21.9087 34.9333 21.426 35.1C20.9433 35.2667 20.468 35.35 20 35.35Z" fill="black"/>
</svg>
