<svg width="24" height="24" viewBox="0 0 24 24" fill="none" xmlns="http://www.w3.org/2000/svg">
<path d="M20.6733 17.8755H19.2744V5.84473C19.2736 5.10294 18.9786 4.39177 18.454 3.86725C17.9295 3.34272 17.2184 3.04769 16.4766 3.04688L5.84473 3.04688C5.10294 3.04769 4.39177 3.34272 3.86725 3.86725C3.34272 4.39177 3.04769 5.10294 3.04688 5.84473C3.04688 5.91893 3.07635 5.99009 3.12882 6.04256C3.18129 6.09503 3.25246 6.12451 3.32666 6.12451H8.08301V10.6145C8.08301 10.6887 8.11249 10.7599 8.16496 10.8123C8.21743 10.8648 8.28859 10.8943 8.36279 10.8943C8.437 10.8943 8.50816 10.8648 8.56063 10.8123C8.6131 10.7599 8.64258 10.6887 8.64258 10.6145V5.84473C8.64217 5.40968 8.54011 4.98075 8.34454 4.59214C8.14897 4.20353 7.86531 3.86599 7.51616 3.60645H16.4766C17.07 3.60711 17.6389 3.84314 18.0585 4.26276C18.4781 4.68237 18.7142 5.2513 18.7148 5.84473V17.8755H13.3989C13.3247 17.8755 13.2536 17.905 13.2011 17.9574C13.1486 18.0099 13.1191 18.0811 13.1191 18.1553C13.1194 18.6571 12.951 19.1444 12.641 19.539C12.3311 19.9336 11.8975 20.2127 11.4099 20.3313C10.9223 20.4499 10.409 20.4012 9.95242 20.193C9.49582 19.9849 9.12241 19.6293 8.89215 19.1835C8.85801 19.1176 8.7991 19.068 8.72837 19.0455C8.65764 19.023 8.58089 19.0296 8.515 19.0637C8.4491 19.0979 8.39947 19.1568 8.37701 19.2275C8.35456 19.2982 8.36111 19.375 8.39525 19.4409C8.63037 19.8972 8.98681 20.2798 9.42535 20.5466C9.86389 20.8134 10.3675 20.9541 10.8809 20.9531H18.1553C18.8971 20.9523 19.6082 20.6573 20.1328 20.1328C20.6573 19.6082 20.9523 18.8971 20.9531 18.1553C20.9531 18.0811 20.9237 18.0099 20.8712 17.9574C20.8187 17.905 20.7475 17.8755 20.6733 17.8755ZM8.06538 5.56494H3.62379C3.69182 5.02393 3.95499 4.52636 4.3639 4.16565C4.7728 3.80494 5.29932 3.6059 5.84459 3.6059C6.38986 3.6059 6.91637 3.80494 7.32528 4.16565C7.73418 4.52636 7.99736 5.02393 8.06538 5.56494ZM18.1553 20.3936H12.5568C12.867 20.1616 13.1256 19.8677 13.3163 19.5306C13.507 19.1935 13.6257 18.8204 13.6647 18.4351H20.3759C20.3072 18.9757 20.0438 19.4727 19.635 19.8332C19.2263 20.1937 18.7003 20.3929 18.1553 20.3936Z" fill="#181513"/>
<path d="M10.8818 10.4384H16.4775C16.5517 10.4384 16.6229 10.4089 16.6754 10.3564C16.7279 10.304 16.7573 10.2328 16.7573 10.1586C16.7573 10.0844 16.7279 10.0132 16.6754 9.96076C16.6229 9.90829 16.5517 9.87881 16.4775 9.87881H10.8818C10.8076 9.87881 10.7365 9.90829 10.684 9.96076C10.6315 10.0132 10.6021 10.0844 10.6021 10.1586C10.6021 10.2328 10.6315 10.304 10.684 10.3564C10.7365 10.4089 10.8076 10.4384 10.8818 10.4384ZM16.4775 11.7441H11.7212C11.647 11.7441 11.5758 11.7736 11.5234 11.8261C11.4709 11.8786 11.4414 11.9497 11.4414 12.0239C11.4414 12.0981 11.4709 12.1693 11.5234 12.2218C11.5758 12.2742 11.647 12.3037 11.7212 12.3037H16.4775C16.5517 12.3037 16.6229 12.2742 16.6754 12.2218C16.7279 12.1693 16.7573 12.0981 16.7573 12.0239C16.7573 11.9497 16.7279 11.8786 16.6754 11.8261C16.6229 11.7736 16.5517 11.7441 16.4775 11.7441ZM16.4775 13.6092H12.8403C12.7661 13.6092 12.695 13.6387 12.6425 13.6911C12.59 13.7436 12.5605 13.8148 12.5605 13.889C12.5605 13.9632 12.59 14.0343 12.6425 14.0868C12.695 14.1393 12.7661 14.1688 12.8403 14.1688H16.4775C16.5517 14.1688 16.6229 14.1393 16.6754 14.0868C16.7279 14.0343 16.7573 13.9632 16.7573 13.889C16.7573 13.8148 16.7279 13.7436 16.6754 13.6911C16.6229 13.6387 16.5517 13.6092 16.4775 13.6092ZM16.4775 15.4745H12.8403C12.7661 15.4745 12.695 15.504 12.6425 15.5565C12.59 15.6089 12.5605 15.6801 12.5605 15.7543C12.5605 15.8285 12.59 15.8997 12.6425 15.9521C12.695 16.0046 12.7661 16.0341 12.8403 16.0341H16.4775C16.5517 16.0341 16.6229 16.0046 16.6754 15.9521C16.7279 15.8997 16.7573 15.8285 16.7573 15.7543C16.7573 15.6801 16.7279 15.6089 16.6754 15.5565C16.6229 15.504 16.5517 15.4745 16.4775 15.4745ZM10.8818 6.70801H16.4775C16.5517 6.70801 16.6229 6.67853 16.6754 6.62606C16.7279 6.57359 16.7573 6.50243 16.7573 6.42822C16.7573 6.35402 16.7279 6.28285 16.6754 6.23038C16.6229 6.17791 16.5517 6.14844 16.4775 6.14844H10.8818C10.8076 6.14844 10.7365 6.17791 10.684 6.23038C10.6315 6.28285 10.6021 6.35402 10.6021 6.42822C10.6021 6.50243 10.6315 6.57359 10.684 6.62606C10.7365 6.67853 10.8076 6.70801 10.8818 6.70801ZM10.8818 8.57306H16.4775C16.5517 8.57306 16.6229 8.54358 16.6754 8.49111C16.7279 8.43864 16.7573 8.36747 16.7573 8.29327C16.7573 8.21907 16.7279 8.1479 16.6754 8.09543C16.6229 8.04296 16.5517 8.01349 16.4775 8.01349H10.8818C10.8076 8.01349 10.7365 8.04296 10.684 8.09543C10.6315 8.1479 10.6021 8.21907 10.6021 8.29327C10.6021 8.36747 10.6315 8.43864 10.684 8.49111C10.7365 8.54358 10.8076 8.57306 10.8818 8.57306ZM12.001 14.9891C12.001 14.2697 11.7877 13.5665 11.388 12.9684C10.9883 12.3702 10.4203 11.904 9.75567 11.6287C9.09106 11.3535 8.35974 11.2814 7.65419 11.4218C6.94864 11.5621 6.30055 11.9085 5.79188 12.4172C5.2832 12.9259 4.93679 13.574 4.79645 14.2795C4.65611 14.9851 4.72814 15.7164 5.00343 16.381C5.27872 17.0456 5.74491 17.6137 6.34305 18.0133C6.94118 18.413 7.6444 18.6263 8.36377 18.6263C9.3281 18.6253 10.2526 18.2417 10.9345 17.5598C11.6164 16.878 11.9999 15.9534 12.001 14.9891ZM8.36377 18.0667C7.75507 18.0667 7.16004 17.8862 6.65393 17.5481C6.14781 17.2099 5.75334 16.7292 5.52041 16.1669C5.28747 15.6045 5.22652 14.9857 5.34527 14.3887C5.46402 13.7917 5.75714 13.2433 6.18755 12.8129C6.61797 12.3825 7.16635 12.0893 7.76335 11.9706C8.36036 11.8518 8.97917 11.9128 9.54153 12.1457C10.1039 12.3787 10.5846 12.7731 10.9227 13.2792C11.2609 13.7854 11.4414 14.3804 11.4414 14.9891C11.4404 15.805 11.1159 16.5873 10.5389 17.1642C9.96197 17.7412 9.17972 18.0658 8.36377 18.0667Z" fill="#181513"/>
<path d="M7.98643 13.8582H8.73961C8.85717 13.8535 8.97181 13.8954 9.05851 13.975C9.14521 14.0545 9.19693 14.1651 9.20238 14.2826C9.20238 14.3568 9.23186 14.428 9.28433 14.4804C9.3368 14.5329 9.40796 14.5624 9.48216 14.5624C9.55637 14.5624 9.62753 14.5329 9.68 14.4804C9.73247 14.428 9.76195 14.3568 9.76195 14.2826C9.75644 14.0167 9.64574 13.7638 9.45411 13.5794C9.26248 13.3949 9.00555 13.2939 8.73961 13.2986H8.64281V12.7485C8.64281 12.6743 8.61333 12.6032 8.56086 12.5507C8.50839 12.4982 8.43723 12.4688 8.36302 12.4688C8.28882 12.4688 8.21766 12.4982 8.16519 12.5507C8.11272 12.6032 8.08324 12.6743 8.08324 12.7485V13.2986H7.98643C7.85379 13.2931 7.72141 13.3145 7.59725 13.3615C7.47309 13.4085 7.3597 13.4801 7.26392 13.572C7.16813 13.6639 7.09191 13.7742 7.03984 13.8963C6.98778 14.0185 6.96094 14.1498 6.96094 14.2826C6.96094 14.4154 6.98778 14.5467 7.03984 14.6689C7.09191 14.791 7.16813 14.9013 7.26392 14.9932C7.3597 15.0851 7.47309 15.1567 7.59725 15.2037C7.72141 15.2507 7.85379 15.2721 7.98643 15.2666H8.73961C8.79853 15.2614 8.85788 15.2684 8.91391 15.2874C8.96993 15.3063 9.0214 15.3367 9.06504 15.3767C9.10867 15.4166 9.14352 15.4651 9.16736 15.5193C9.1912 15.5734 9.20351 15.6319 9.20351 15.691C9.20351 15.7502 9.1912 15.8087 9.16736 15.8628C9.14352 15.9169 9.10867 15.9655 9.06504 16.0054C9.0214 16.0453 8.96993 16.0757 8.91391 16.0947C8.85788 16.1136 8.79853 16.1207 8.73961 16.1155H7.98643C7.86888 16.1202 7.75424 16.0782 7.66754 15.9987C7.58084 15.9191 7.52912 15.8086 7.52367 15.691C7.52367 15.6168 7.49419 15.5457 7.44172 15.4932C7.38925 15.4407 7.31809 15.4113 7.24388 15.4113C7.16968 15.4113 7.09852 15.4407 7.04605 15.4932C6.99358 15.5457 6.9641 15.6168 6.9641 15.691C6.96961 15.957 7.08031 16.2098 7.27194 16.3943C7.46357 16.5787 7.7205 16.6797 7.98643 16.675H8.08324V17.2251C8.08324 17.2993 8.11272 17.3705 8.16519 17.4229C8.21766 17.4754 8.28882 17.5049 8.36302 17.5049C8.43723 17.5049 8.50839 17.4754 8.56086 17.4229C8.61333 17.3705 8.64281 17.2993 8.64281 17.2251V16.675H8.73961C8.87226 16.6805 9.00464 16.6591 9.1288 16.6121C9.25296 16.5652 9.36634 16.4936 9.46213 16.4017C9.55792 16.3097 9.63414 16.1994 9.6862 16.0773C9.73827 15.9552 9.76511 15.8238 9.76511 15.691C9.76511 15.5583 9.73827 15.4269 9.6862 15.3048C9.63414 15.1827 9.55792 15.0723 9.46213 14.9804C9.36634 14.8885 9.25296 14.8169 9.1288 14.7699C9.00464 14.7229 8.87226 14.7016 8.73961 14.707H7.98643C7.92752 14.7123 7.86817 14.7052 7.81214 14.6863C7.75611 14.6673 7.70464 14.6369 7.66101 14.597C7.61737 14.5571 7.58253 14.5085 7.55869 14.4544C7.53485 14.4002 7.52253 14.3417 7.52253 14.2826C7.52253 14.2235 7.53485 14.165 7.55869 14.1108C7.58253 14.0567 7.61737 14.0081 7.66101 13.9682C7.70464 13.9283 7.75611 13.8979 7.81214 13.8789C7.86817 13.86 7.92752 13.8529 7.98643 13.8582Z" fill="#181513"/>
</svg>
