<svg width="24" height="24" viewBox="0 0 24 24" fill="none" xmlns="http://www.w3.org/2000/svg">
<g clip-path="url(#clip0_5640_2639)">
<path d="M20.6034 18.6432C20.1967 18.6435 19.7991 18.5232 19.4608 18.2975C19.1225 18.0717 18.8587 17.7507 18.7029 17.3751C18.547 16.9994 18.5061 16.586 18.5853 16.1871C18.6644 15.7881 18.8601 15.4217 19.1476 15.134C19.4351 14.8463 19.8014 14.6503 20.2003 14.5709C20.5991 14.4914 21.0126 14.532 21.3884 14.6876C21.7642 14.8432 22.0854 15.1067 22.3113 15.4448C22.5373 15.783 22.6579 16.1805 22.6579 16.5872C22.6577 17.1322 22.4412 17.6548 22.056 18.0402C21.6708 18.4257 21.1484 18.6426 20.6034 18.6432ZM20.6034 15.2812C20.3451 15.281 20.0924 15.3573 19.8775 15.5006C19.6625 15.6439 19.4949 15.8478 19.3958 16.0864C19.2967 16.325 19.2706 16.5877 19.3209 16.8411C19.3711 17.0946 19.4953 17.3274 19.6779 17.5102C19.8605 17.693 20.0932 17.8175 20.3466 17.868C20.6 17.9186 20.8626 17.8928 21.1014 17.794C21.3401 17.6952 21.5442 17.5278 21.6877 17.313C21.8313 17.0982 21.9079 16.8456 21.9079 16.5872C21.9078 16.2412 21.7704 15.9093 21.5258 15.6644C21.2812 15.4196 20.9495 15.2818 20.6034 15.2812ZM9.76894 18.6432C9.36222 18.6436 8.96451 18.5234 8.62614 18.2977C8.28777 18.072 8.02394 17.7511 7.86802 17.3754C7.7121 16.9998 7.6711 16.5863 7.7502 16.1874C7.82931 15.7884 8.02496 15.4219 8.31242 15.1341C8.59988 14.8464 8.96622 14.6504 9.3651 14.5709C9.76398 14.4914 10.1775 14.532 10.5533 14.6876C10.9291 14.8431 11.2503 15.1066 11.4763 15.4448C11.7023 15.7829 11.8229 16.1805 11.8229 16.5872C11.8225 17.1321 11.6061 17.6545 11.221 18.0399C10.836 18.4253 10.3138 18.6423 9.76894 18.6432ZM9.76894 15.2812C9.51055 15.2809 9.25785 15.3571 9.04282 15.5004C8.82779 15.6436 8.66008 15.8475 8.56093 16.0861C8.46177 16.3247 8.43562 16.5873 8.48579 16.8408C8.53596 17.0943 8.66018 17.3272 8.84275 17.51C9.02532 17.6929 9.25802 17.8175 9.51141 17.868C9.76481 17.9186 10.0275 17.8928 10.2663 17.794C10.505 17.6952 10.7091 17.5278 10.8527 17.313C10.9963 17.0982 11.0729 16.8456 11.0729 16.5872C11.0727 16.2413 10.9353 15.9096 10.6908 15.6648C10.4464 15.42 10.1149 15.282 9.76894 15.2812Z" fill="#181513"/>
<path d="M23.3106 16.9633H22.2851C22.1856 16.9633 22.0903 16.9238 22.0199 16.8535C21.9496 16.7832 21.9101 16.6878 21.9101 16.5883C21.9101 16.4889 21.9496 16.3935 22.0199 16.3232C22.0903 16.2529 22.1856 16.2133 22.2851 16.2133H23.2046V14.2248C23.2044 13.956 23.1355 13.6917 23.0046 13.4568L20.9746 9.81734C20.9573 9.78628 20.9319 9.76041 20.9013 9.74239C20.8706 9.72438 20.8357 9.71487 20.8001 9.71484H18.0336V16.2148H18.9266C19.026 16.2148 19.1214 16.2544 19.1918 16.3247C19.2621 16.395 19.3016 16.4904 19.3016 16.5898C19.3016 16.6893 19.2621 16.7847 19.1918 16.855C19.1214 16.9253 19.026 16.9648 18.9266 16.9648H17.6586C17.5591 16.9648 17.4638 16.9253 17.3934 16.855C17.3231 16.7847 17.2836 16.6893 17.2836 16.5898V9.33984C17.2836 9.24039 17.3231 9.145 17.3934 9.07468C17.4638 9.00435 17.5591 8.96484 17.6586 8.96484H20.8001C20.9693 8.96476 21.1354 9.00986 21.2813 9.09547C21.4272 9.18109 21.5476 9.30412 21.6301 9.45184L23.6596 13.0918C23.8525 13.4383 23.9539 13.8283 23.9541 14.2248V16.3198C23.9538 16.4904 23.8859 16.654 23.7653 16.7746C23.6447 16.8952 23.4812 16.9631 23.3106 16.9633ZM8.09159 16.9633H4.49609C4.39664 16.9633 4.30126 16.9238 4.23093 16.8535C4.1606 16.7832 4.12109 16.6878 4.12109 16.5883V13.7043C4.12109 13.6049 4.1606 13.5095 4.23093 13.4392C4.30126 13.3689 4.39664 13.3293 4.49609 13.3293C4.59555 13.3293 4.69093 13.3689 4.76126 13.4392C4.83159 13.5095 4.87109 13.6049 4.87109 13.7043V16.2133H8.09159C8.19105 16.2133 8.28643 16.2529 8.35676 16.3232C8.42708 16.3935 8.46659 16.4889 8.46659 16.5883C8.46659 16.6878 8.42708 16.7832 8.35676 16.8535C8.28643 16.9238 8.19105 16.9633 8.09159 16.9633ZM4.49609 12.3738C4.39664 12.3738 4.30126 12.3343 4.23093 12.264C4.1606 12.1937 4.12109 12.0983 4.12109 11.9988V9.48084C4.12109 9.38139 4.1606 9.286 4.23093 9.21568C4.30126 9.14535 4.39664 9.10584 4.49609 9.10584C4.59555 9.10584 4.69093 9.14535 4.76126 9.21568C4.83159 9.286 4.87109 9.38139 4.87109 9.48084V12.0003C4.8707 12.0995 4.83101 12.1945 4.76073 12.2645C4.69045 12.3345 4.59529 12.3738 4.49609 12.3738Z" fill="#181513"/>
<path d="M17.6583 16.9628H11.4497C11.3503 16.9628 11.2549 16.9233 11.1846 16.853C11.1143 16.7827 11.0747 16.6873 11.0747 16.5878C11.0747 16.4884 11.1143 16.393 11.1846 16.3227C11.2549 16.2524 11.3503 16.2128 11.4497 16.2128H17.2833V6.40234H4.87075V7.94684C4.87075 8.0463 4.83124 8.14168 4.76092 8.21201C4.69059 8.28233 4.59521 8.32184 4.49575 8.32184C4.39629 8.32184 4.30091 8.28233 4.23059 8.21201C4.16026 8.14168 4.12075 8.0463 4.12075 7.94684V6.33334C4.12101 6.15273 4.19292 5.97959 4.32068 5.85192C4.44844 5.72425 4.62163 5.65248 4.80225 5.65234H17.3523C17.5328 5.65261 17.7058 5.72444 17.8335 5.8521C17.9612 5.97975 18.033 6.15281 18.0333 6.33334V16.5878C18.0333 16.6873 17.9937 16.7827 17.9234 16.853C17.8531 16.9233 17.7577 16.9628 17.6583 16.9628ZM5.97825 14.0788H1.21875C1.11929 14.0788 1.02391 14.0393 0.953585 13.969C0.883259 13.8987 0.84375 13.8033 0.84375 13.7038C0.84375 13.6044 0.883259 13.509 0.953585 13.4387C1.02391 13.3684 1.11929 13.3288 1.21875 13.3288H5.97825C6.07771 13.3288 6.17309 13.3684 6.24342 13.4387C6.31374 13.509 6.35325 13.6044 6.35325 13.7038C6.35325 13.8033 6.31374 13.8987 6.24342 13.969C6.17309 14.0393 6.07771 14.0788 5.97825 14.0788Z" fill="#181513"/>
<path d="M9.76962 12.3718H3.12812C3.02867 12.3718 2.93329 12.3323 2.86296 12.262C2.79263 12.1917 2.75312 12.0963 2.75312 11.9968C2.75312 11.8974 2.79263 11.802 2.86296 11.7316C2.93329 11.6613 3.02867 11.6218 3.12812 11.6218H9.76962C9.86908 11.6218 9.96446 11.6613 10.0348 11.7316C10.1051 11.802 10.1446 11.8974 10.1446 11.9968C10.1446 12.0963 10.1051 12.1917 10.0348 12.262C9.96446 12.3323 9.86908 12.3718 9.76962 12.3718ZM2.92163 10.3918H0.328125C0.228669 10.3918 0.133286 10.3523 0.06296 10.282C-0.00736619 10.2117 -0.046875 10.1163 -0.046875 10.0168C-0.046875 9.91736 -0.00736619 9.82197 0.06296 9.75165C0.133286 9.68132 0.228669 9.64181 0.328125 9.64181H2.92163C3.02108 9.64181 3.11646 9.68132 3.18679 9.75165C3.25712 9.82197 3.29663 9.91736 3.29663 10.0168C3.29663 10.1163 3.25712 10.2117 3.18679 10.282C3.11646 10.3523 3.02108 10.3918 2.92163 10.3918ZM7.08012 8.32031H2.50213C2.40267 8.32031 2.30729 8.2808 2.23696 8.21048C2.16663 8.14015 2.12713 8.04477 2.12713 7.94531C2.12713 7.84586 2.16663 7.75047 2.23696 7.68015C2.30729 7.60982 2.40267 7.57031 2.50213 7.57031H7.08012C7.17958 7.57031 7.27496 7.60982 7.34529 7.68015C7.41562 7.75047 7.45512 7.84586 7.45512 7.94531C7.45512 8.04477 7.41562 8.14015 7.34529 8.21048C7.27496 8.2808 7.17958 8.32031 7.08012 8.32031Z" fill="#181513"/>
</g>
<defs>
<clipPath id="clip0_5640_2639">
<rect width="24" height="24" fill="white"/>
</clipPath>
</defs>
</svg>
