<svg width="150" height="126" viewBox="0 0 150 126" fill="none" xmlns="http://www.w3.org/2000/svg">
<path d="M92.6211 6.04688H69.1836V6.38379H92.6211V6.04688Z" fill="#947D66"/>
<path d="M86.2567 6.30078H85.9219V9.41721H86.2567V6.30078Z" fill="#947D66"/>
<path d="M76.0458 6.30078H75.7109V9.41721H76.0458V6.30078Z" fill="#947D66"/>
<path d="M104.508 22.2188H81.0703V22.5557H104.508V22.2188Z" fill="#947D66"/>
<path d="M87.7645 19.1875H87.4297V22.3039H87.7645V19.1875Z" fill="#947D66"/>
<path d="M97.9754 19.1875H97.6406V22.3039H97.9754V19.1875Z" fill="#947D66"/>
<path d="M135.645 29.8008H112.207V30.1377H135.645V29.8008Z" fill="#947D66"/>
<path d="M118.905 26.7695H118.57V29.886H118.905V26.7695Z" fill="#947D66"/>
<path d="M129.116 26.7695H128.781V29.886H129.116V26.7695Z" fill="#947D66"/>
<path d="M133.301 107.961H109.863V108.298H133.301V107.961Z" fill="#947D66"/>
<path d="M116.561 104.93H116.227V108.046H116.561V104.93Z" fill="#947D66"/>
<path d="M126.768 104.93H126.434V108.046H126.768V104.93Z" fill="#947D66"/>
<path d="M25.4453 107.961H2.00781V108.298H25.4453V107.961Z" fill="#947D66"/>
<path d="M8.70201 104.93H8.36719V108.046H8.70201V104.93Z" fill="#947D66"/>
<path d="M18.9169 104.93H18.582V108.046H18.9169V104.93Z" fill="#947D66"/>
<path d="M33.4844 84.9023H10.0469V85.2393H33.4844V84.9023Z" fill="#947D66"/>
<path d="M16.7411 81.8711H16.4062V84.9875H16.7411V81.8711Z" fill="#947D66"/>
<path d="M26.9559 81.8711H26.6211V84.9875H26.9559V81.8711Z" fill="#947D66"/>
<path d="M93.2891 53.8906H69.8516V54.2275H93.2891V53.8906Z" fill="#947D66"/>
<path d="M76.5497 50.8594H76.2148V53.9758H76.5497V50.8594Z" fill="#947D66"/>
<path d="M86.7606 50.8594H86.4258V53.9758H86.7606V50.8594Z" fill="#947D66"/>
<path d="M100.656 94.4883H77.2188V94.8252H100.656V94.4883Z" fill="#947D66"/>
<path d="M83.9129 91.457H83.5781V94.5735H83.9129V91.457Z" fill="#947D66"/>
<path d="M94.1278 91.457H93.793V94.5735H94.1278V91.457Z" fill="#947D66"/>
<path d="M138.156 82.1914H114.719V82.5283H138.156V82.1914Z" fill="#947D66"/>
<path d="M121.413 79.1602H121.078V82.2766H121.413V79.1602Z" fill="#947D66"/>
<path d="M131.628 79.1602H131.293V82.2766H131.628V79.1602Z" fill="#947D66"/>
<path d="M92.8163 118.29H53.1758V118.003H92.531V104.086H56.5083L54.7583 100.417L55.0155 100.293L56.6877 103.799H92.8163V118.29Z" fill="#947D66"/>
<path d="M58.4515 125.319C60.1052 125.319 61.4459 123.97 61.4459 122.306C61.4459 120.642 60.1052 119.293 58.4515 119.293C56.7977 119.293 55.457 120.642 55.457 122.306C55.457 123.97 56.7977 125.319 58.4515 125.319Z" fill="#947D66"/>
<path d="M87.9671 125.319C89.6209 125.319 90.9615 123.97 90.9615 122.306C90.9615 120.642 89.6209 119.293 87.9671 119.293C86.3133 119.293 84.9727 120.642 84.9727 122.306C84.9727 123.97 86.3133 125.319 87.9671 125.319Z" fill="#947D66"/>
<path d="M122.76 60.1758C123.784 60.1758 124.614 59.3407 124.614 58.3106C124.614 57.2804 123.784 56.4453 122.76 56.4453C121.736 56.4453 120.906 57.2804 120.906 58.3106C120.906 59.3407 121.736 60.1758 122.76 60.1758Z" fill="#947D66"/>
<path d="M97.0564 99.3462H52.5003L42.8594 67.6367H106.985L106.927 67.8233L97.0564 99.3462ZM52.7112 99.0593H96.8473L106.596 67.9237H43.2448L52.7112 99.0593Z" fill="#947D66"/>
<path d="M93.5759 97.7006H54.4406L45.9727 69.5781H102.296L102.245 69.7437L93.5759 97.7006Z" fill="#6A5A49"/>
<path d="M107.784 64.8086L107.508 64.735L109.39 57.5977H120.336V57.8847H109.609L107.784 64.8086Z" fill="#947D66"/>
<path d="M103.778 77.25H45.9727V77.537H103.778V77.25Z" fill="#947D66"/>
<path d="M100.469 87.8242H49.1875V88.1112H100.469V87.8242Z" fill="#947D66"/>
<path d="M75.0625 67.7812H74.7773V99.2038H75.0625V67.7812Z" fill="#947D66"/>
<path d="M87.8323 67.7736L85.7852 99.1953L86.0698 99.2141L88.1169 67.7923L87.8323 67.7736Z" fill="#947D66"/>
<path d="M62.0151 67.7704L61.7305 67.7891L63.7657 99.2116L64.0504 99.1929L62.0151 67.7704Z" fill="#947D66"/>
<path d="M150 125.5H0V125.837H150V125.5Z" fill="#947D66"/>
<path d="M33.5234 59.4492H10.0859V59.7861H33.5234V59.4492Z" fill="#947D66"/>
<path d="M16.784 56.418H16.4492V59.5344H16.784V56.418Z" fill="#947D66"/>
<path d="M26.995 56.418H26.6602V59.5344H26.995V56.418Z" fill="#947D66"/>
<path d="M41.7266 9.58594H18.2891V9.92285H41.7266V9.58594Z" fill="#947D66"/>
<path d="M35.3661 9.83984H35.0312V12.9563H35.3661V9.83984Z" fill="#947D66"/>
<path d="M25.1551 9.83984H24.8203V12.9563H25.1551V9.83984Z" fill="#947D66"/>
<path d="M65.332 42.7734H41.8945V43.1103H65.332V42.7734Z" fill="#947D66"/>
<path d="M58.9715 43.0234H58.6367V46.1399H58.9715V43.0234Z" fill="#947D66"/>
<path d="M48.7567 43.0234H48.4219V46.1399H48.7567V43.0234Z" fill="#947D66"/>
<path d="M25.4883 42.6055H2.05078V42.9424H25.4883V42.6055Z" fill="#947D66"/>
<path d="M19.1278 42.8555H18.793V45.9719H19.1278V42.8555Z" fill="#947D66"/>
<path d="M8.91295 42.8555H8.57812V45.9719H8.91295V42.8555Z" fill="#947D66"/>
<path d="M53.6133 25.7578H30.1758V26.0947H53.6133V25.7578Z" fill="#947D66"/>
<path d="M36.8739 22.7266H36.5391V25.843H36.8739V22.7266Z" fill="#947D66"/>
<path d="M47.0848 22.7266H46.75V25.843H47.0848V22.7266Z" fill="#947D66"/>
</svg>
