<svg width="42" height="42" viewBox="0 0 42 42" fill="none" xmlns="http://www.w3.org/2000/svg">
<path d="M0 21C0 9.40202 9.40202 0 21 0C32.598 0 42 9.40202 42 21C42 32.598 32.598 42 21 42C9.40202 42 0 32.598 0 21Z" fill="#F2E8DE"/>
<path d="M28.0017 21.1538C28.0017 20.5782 27.954 20.1582 27.8509 19.7227H21.1445V22.3204H25.081C25.0017 22.966 24.5731 23.9382 23.6207 24.5915L23.6074 24.6785L25.7278 26.2883L25.8747 26.3027C27.2239 25.0815 28.0017 23.2849 28.0017 21.1538Z" fill="#4285F4"/>
<path d="M21.1427 27.9984C23.0712 27.9984 24.6902 27.3762 25.8728 26.3029L23.6188 24.5917C23.0157 25.0039 22.2061 25.2917 21.1427 25.2917C19.2538 25.2917 17.6506 24.0706 17.0792 22.3828L16.9954 22.3898L14.7906 24.062L14.7617 24.1406C15.9363 26.4273 18.349 27.9984 21.1427 27.9984Z" fill="#34A853"/>
<path d="M17.0793 22.385C16.9285 21.9494 16.8413 21.4827 16.8413 21.0005C16.8413 20.5183 16.9285 20.0516 17.0714 19.6161L17.0674 19.5233L14.8349 17.8242L14.7619 17.8583C14.2778 18.8072 14 19.8727 14 21.0005C14 22.1283 14.2778 23.1938 14.7619 24.1427L17.0793 22.385Z" fill="#FBBC05"/>
<path d="M21.1427 16.7066C22.484 16.7066 23.3887 17.2744 23.9046 17.7489L25.9205 15.82C24.6824 14.6922 23.0712 14 21.1427 14C18.349 14 15.9363 15.5711 14.7617 17.8577L17.0712 19.6155C17.6507 17.9278 19.2538 16.7066 21.1427 16.7066Z" fill="#EB4335"/>
</svg>
