<svg width="18" height="18" viewBox="0 0 18 18" fill="none" xmlns="http://www.w3.org/2000/svg">
<path fill-rule="evenodd" clip-rule="evenodd" d="M8.99958 2.77656C8.54208 2.77656 8.10332 2.9583 7.77982 3.2818C7.45632 3.6053 7.27458 4.04406 7.27458 4.50156V5.47656H10.7246V4.50156C10.7246 4.04406 10.5428 3.6053 10.2193 3.2818C9.89584 2.9583 9.45708 2.77656 8.99958 2.77656ZM11.7746 5.47656V4.50156C11.7746 3.76559 11.4822 3.05975 10.9618 2.53934C10.4414 2.01893 9.73555 1.72656 8.99958 1.72656C8.2636 1.72656 7.55777 2.01893 7.03735 2.53934C6.51694 3.05975 6.22458 3.76559 6.22458 4.50156V5.47656H4.74789M6.22458 6.52656H4.74783C4.60725 6.52655 4.46826 6.55693 4.34053 6.61563C4.21279 6.67433 4.09926 6.75996 4.00771 6.86664C3.91617 6.97333 3.84878 7.09855 3.81016 7.23372C3.77155 7.36887 3.76261 7.51076 3.78396 7.64968C3.78396 7.64965 3.78397 7.64971 3.78396 7.64968L4.72521 13.7637C4.78784 14.1709 4.9942 14.5424 5.30691 14.8107C5.61962 15.079 6.01804 15.2265 6.43008 15.2266C6.43007 15.2266 6.43008 15.2266 6.43008 15.2266H11.5691C11.9812 15.2267 12.3799 15.0792 12.6928 14.8109C13.0056 14.5426 13.212 14.1711 13.2747 13.7638L14.2159 7.64976C14.2159 7.64979 14.2159 7.64973 14.2159 7.64976C14.2373 7.51084 14.2284 7.36887 14.1897 7.23372C14.1511 7.09855 14.0837 6.97333 13.9922 6.86664C13.9006 6.75996 13.7871 6.67433 13.6594 6.61563C13.5316 6.55693 13.3927 6.52655 13.2521 6.52656H11.7746V8.77656H10.7246V6.52656H7.27458V8.77656H6.22458V6.52656ZM11.7746 5.47656H13.252C13.252 5.47656 13.252 5.47656 13.252 5.47656C13.544 5.47654 13.8325 5.53964 14.0978 5.66155C14.3631 5.78346 14.5989 5.96131 14.789 6.18289C14.9792 6.40447 15.1191 6.66454 15.1994 6.94528C15.2796 7.22602 15.2981 7.52078 15.2537 7.80936L14.3125 13.9234C14.3125 13.9234 14.3125 13.9233 14.3125 13.9234C14.2117 14.5786 13.8796 15.1763 13.3764 15.6079C12.8732 16.0395 12.232 16.2767 11.5691 16.2766C11.569 16.2766 11.5691 16.2766 11.5691 16.2766H6.43008C5.76722 16.2765 5.12625 16.0392 4.62318 15.6076C4.12014 15.176 3.78821 14.5786 3.68744 13.9234C3.68744 13.9234 3.68744 13.9235 3.68744 13.9234L2.74619 7.80944C2.70181 7.52087 2.72035 7.22602 2.80055 6.94528C2.88076 6.66454 3.02073 6.40447 3.21086 6.18289C3.40099 5.96131 3.63679 5.78346 3.90209 5.66155C4.16737 5.53964 4.45594 5.47654 4.74789 5.47656" fill="#D3B393"/>
</svg>
