<svg width="18" height="18" viewBox="0 0 18 18" fill="none" xmlns="http://www.w3.org/2000/svg">
<path fill-rule="evenodd" clip-rule="evenodd" d="M6.50901 2.75901C7.17008 2.09795 8.06667 1.72656 9.00156 1.72656C9.93645 1.72656 10.833 2.09795 11.4941 2.75901C12.1552 3.42008 12.5266 4.31667 12.5266 5.25156C12.5266 6.18645 12.1552 7.08305 11.4941 7.74411C10.833 8.40518 9.93645 8.77656 9.00156 8.77656C8.06667 8.77656 7.17008 8.40518 6.50901 7.74411C5.84795 7.08305 5.47656 6.18645 5.47656 5.25156C5.47656 4.31667 5.84795 3.42008 6.50901 2.75901ZM9.00156 2.77656C8.34515 2.77656 7.71563 3.03732 7.25147 3.50147C6.78732 3.96563 6.52656 4.59515 6.52656 5.25156C6.52656 5.90797 6.78732 6.5375 7.25147 7.00165C7.71563 7.4658 8.34515 7.72656 9.00156 7.72656C9.65797 7.72656 10.2875 7.4658 10.7517 7.00165C11.2158 6.5375 11.4766 5.90797 11.4766 5.25156C11.4766 4.59515 11.2158 3.96563 10.7517 3.50147C10.2875 3.03732 9.65797 2.77656 9.00156 2.77656ZM7.50156 11.7766C6.84515 11.7766 6.21563 12.0373 5.75147 12.5015C5.28732 12.9656 5.02656 13.5952 5.02656 14.2516V16.2766H3.97656V14.2516C3.97656 13.3167 4.34795 12.4201 5.00901 11.759C5.67008 11.0979 6.56667 10.7266 7.50156 10.7266H10.5016C11.4365 10.7266 12.333 11.0979 12.9941 11.759C13.6552 12.4201 14.0266 13.3167 14.0266 14.2516V16.2766H12.9766V14.2516C12.9766 13.5952 12.7158 12.9656 12.2517 12.5015C11.7875 12.0373 11.158 11.7766 10.5016 11.7766H7.50156Z" fill="#D3B393"/>
</svg>
