<svg width="24" height="24" viewBox="0 0 24 24" fill="none" xmlns="http://www.w3.org/2000/svg">
<path d="M21.8956 5.69162C21.874 5.65468 21.8451 5.62262 21.8105 5.59746C21.7759 5.5723 21.7365 5.55459 21.6947 5.54546L11.5277 2.07902C11.4885 2.06571 11.447 2.06036 11.4057 2.06327C11.3644 2.06619 11.3241 2.07731 11.2872 2.096L2.2331 6.67457C2.18016 6.70157 2.1361 6.7432 2.10615 6.79452C2.0762 6.84584 2.06162 6.90468 2.06415 6.96405C2.06668 7.02341 2.08621 7.0808 2.12042 7.12938C2.15463 7.17797 2.20207 7.2157 2.25711 7.2381L5.65606 8.60819V11.8502C5.65626 11.9133 5.67566 11.9748 5.71168 12.0266C5.7477 12.0784 5.79863 12.1179 5.8577 12.14L8.16604 13.0054C8.21294 13.023 8.26339 13.0289 8.31309 13.0228C8.36279 13.0166 8.41027 12.9985 8.45147 12.9701C8.49267 12.9416 8.52638 12.9036 8.54971 12.8593C8.57304 12.815 8.58531 12.7657 8.58547 12.7156L8.5983 9.78865L12.5732 11.3906C12.6172 11.4086 12.6648 11.4161 12.7122 11.4126C12.7596 11.4091 12.8056 11.3946 12.8465 11.3703L21.3097 6.39509V16.1874L13.0009 21.0836V12.1976C13.0009 12.1152 12.9682 12.0363 12.91 11.978C12.8517 11.9198 12.7727 11.8871 12.6904 11.8871C12.608 11.8871 12.529 11.9198 12.4708 11.978C12.4126 12.0363 12.3798 12.1152 12.3798 12.1976V21.1672L2.68358 17.2581V8.20573C2.68358 8.12337 2.65087 8.04439 2.59263 7.98615C2.53439 7.92791 2.4554 7.8952 2.37305 7.8952C2.29069 7.8952 2.2117 7.92791 2.15346 7.98615C2.09522 8.04439 2.06251 8.12337 2.06251 8.20573V17.4681C2.0621 17.5303 2.08044 17.5913 2.11515 17.643C2.14986 17.6947 2.19933 17.7347 2.25711 17.7579L12.5724 21.9141C12.6086 21.9289 12.6475 21.9365 12.6866 21.9365C12.7434 21.9363 12.7991 21.9211 12.8481 21.8926L21.778 16.6342C21.8246 16.6068 21.8632 16.5677 21.89 16.5208C21.9168 16.4738 21.9308 16.4207 21.9308 16.3667V5.90982C21.9467 5.83524 21.9341 5.7574 21.8956 5.69162ZM12.6622 10.7596L9.02933 9.29552L16.3299 5.25065C16.3659 5.23106 16.3976 5.20454 16.4233 5.17262C16.449 5.1407 16.4681 5.10401 16.4796 5.06466C16.491 5.02532 16.4946 4.9841 16.49 4.94337C16.4855 4.90265 16.4729 4.86323 16.453 4.82739C16.4332 4.79155 16.4064 4.75999 16.3743 4.73454C16.3422 4.70909 16.3054 4.69024 16.2659 4.67909C16.2265 4.66794 16.1853 4.6647 16.1446 4.66956C16.1039 4.67442 16.0646 4.68729 16.0289 4.70742C16.0289 4.70742 8.15486 9.06696 8.11262 9.09429C8.07109 9.12232 8.03717 9.16022 8.0139 9.20459C7.99063 9.24896 7.97874 9.29842 7.9793 9.34852L7.96646 12.2692L6.27713 11.6361V8.58915L14.07 4.55422C14.1413 4.51536 14.1945 4.45013 14.2183 4.37249C14.2421 4.29485 14.2345 4.21099 14.1972 4.13888C14.1599 4.06676 14.0958 4.01212 14.0187 3.98666C13.9416 3.96121 13.8576 3.96697 13.7847 4.0027L5.95045 8.05875L3.12413 6.91928L11.4507 2.70921L20.8832 5.92555L12.6622 10.7596Z" fill="#181513"/>
</svg>
