<svg width="16" height="16" viewBox="0 0 16 16" fill="none" xmlns="http://www.w3.org/2000/svg">
<path d="M8.68735 1.33594C9.43762 1.33718 9.81782 1.34114 10.1463 1.35092L10.2758 1.35516C10.4252 1.36047 10.5727 1.36714 10.7505 1.37547C11.4599 1.40824 11.9438 1.52047 12.3688 1.68547C12.8082 1.85491 13.1793 2.0838 13.5499 2.45436C13.9199 2.82491 14.1488 3.19714 14.3188 3.63547C14.4832 4.05991 14.5955 4.54436 14.6288 5.2538C14.6368 5.43158 14.6431 5.57904 14.6484 5.72854L14.6526 5.85793C14.6623 6.18643 14.6668 6.56668 14.6682 7.31695L14.6687 7.81408C14.6688 7.87482 14.6688 7.93748 14.6688 8.00215L14.6687 8.19022L14.6683 8.68735C14.6671 9.43762 14.6631 9.81782 14.6533 10.1463L14.6491 10.2758C14.6438 10.4252 14.6371 10.5727 14.6288 10.7505C14.596 11.4599 14.4832 11.9438 14.3188 12.3688C14.1494 12.8082 13.9199 13.1793 13.5499 13.5499C13.1793 13.9199 12.8066 14.1488 12.3688 14.3188C11.9438 14.4832 11.4599 14.5955 10.7505 14.6288C10.5727 14.6368 10.4252 14.6431 10.2758 14.6484L10.1463 14.6526C9.81782 14.6623 9.43762 14.6668 8.68735 14.6682L8.19022 14.6687C8.12948 14.6688 8.06682 14.6688 8.00215 14.6688L7.81408 14.6687L7.31695 14.6683C6.56668 14.6671 6.18643 14.6631 5.85793 14.6533L5.72854 14.6491C5.57904 14.6438 5.43158 14.6371 5.2538 14.6288C4.54436 14.596 4.06102 14.4832 3.63547 14.3188C3.19658 14.1494 2.82491 13.9199 2.45436 13.5499C2.0838 13.1793 1.85547 12.8066 1.68547 12.3688C1.52047 11.9438 1.4088 11.4599 1.37547 10.7505C1.36755 10.5727 1.36109 10.4252 1.35586 10.2758L1.35166 10.1463C1.34191 9.81782 1.33746 9.43762 1.33602 8.68735L1.33594 7.31695C1.33718 6.56668 1.34114 6.18643 1.35092 5.85793L1.35516 5.72854C1.36047 5.57904 1.36714 5.43158 1.37547 5.2538C1.40824 4.5438 1.52047 4.06047 1.68547 3.63547C1.85491 3.19658 2.0838 2.82491 2.45436 2.45436C2.82491 2.0838 3.19714 1.85547 3.63547 1.68547C4.06047 1.52047 4.5438 1.4088 5.2538 1.37547C5.43158 1.36755 5.57904 1.36109 5.72854 1.35586L5.85793 1.35166C6.18643 1.34191 6.56668 1.33746 7.31695 1.33602L8.68735 1.33594ZM8.00215 4.6688C6.1602 4.6688 4.6688 6.16182 4.6688 8.00215C4.6688 9.84408 6.16182 11.3355 8.00215 11.3355C9.84408 11.3355 11.3355 9.84242 11.3355 8.00215C11.3355 6.1602 9.84242 4.6688 8.00215 4.6688ZM8.00215 6.00214C9.10675 6.00214 10.0022 6.89722 10.0022 8.00215C10.0022 9.10675 9.10702 10.0022 8.00215 10.0022C6.89755 10.0022 6.00214 9.10702 6.00214 8.00215C6.00214 6.89755 6.89722 6.00214 8.00215 6.00214ZM11.5021 3.6688C11.0426 3.6688 10.6688 4.04207 10.6688 4.50157C10.6688 4.96106 11.0421 5.33491 11.5021 5.33491C11.9616 5.33491 12.3355 4.96164 12.3355 4.50157C12.3355 4.04207 11.961 3.66822 11.5021 3.6688Z" fill="white"/>
</svg>
