<svg width="16" height="16" viewBox="0 0 16 16" fill="none" xmlns="http://www.w3.org/2000/svg">
<path d="M14.8083 3.77265C14.2994 3.99779 13.7597 4.14565 13.2071 4.21136C13.7893 3.86283 14.2249 3.31455 14.4329 2.66865C13.8858 2.99369 13.287 3.22247 12.6625 3.34503C12.1354 2.78266 11.3987 2.46397 10.6279 2.46485C9.0884 2.46485 7.8398 3.71303 7.8398 5.25317C7.8398 5.47167 7.86487 5.68357 7.91174 5.88801C5.59365 5.77131 3.54005 4.66199 2.16452 2.97489C1.91686 3.4004 1.7867 3.88407 1.78736 4.3764C1.78736 5.34368 2.27974 6.19745 3.02766 6.69729C2.58492 6.68329 2.15192 6.56371 1.76479 6.34844C1.76436 6.36015 1.76436 6.37187 1.76436 6.38294C1.76436 7.73422 2.72546 8.86142 4.00133 9.11735C3.76187 9.18215 3.51488 9.21489 3.26682 9.21469C3.08665 9.21469 2.91181 9.19809 2.74186 9.16549C3.09688 10.273 4.12591 11.0792 5.3464 11.1014C4.35876 11.8765 3.13913 12.297 1.88362 12.2952C1.66142 12.2954 1.4394 12.2823 1.21875 12.256C2.49336 13.0754 3.97702 13.5103 5.49228 13.5087C10.6211 13.5087 13.4253 9.26029 13.4253 5.57603C13.4253 5.45549 13.4224 5.33453 13.4171 5.21527C13.9629 4.82092 14.434 4.3324 14.8083 3.77265Z" fill="white"/>
</svg>
