<svg width="24" height="24" viewBox="0 0 24 24" fill="none" xmlns="http://www.w3.org/2000/svg">
<path d="M19.7765 17.8058C19.714 17.2836 19.4942 16.7928 19.1464 16.3983C18.7986 16.0038 18.3392 15.7243 17.829 15.5968L14.1093 14.5505V13.1075C14.8433 12.5058 15.4819 11.688 15.6072 10.7812H16.7906C17.0492 10.7812 17.2972 10.6785 17.48 10.4957C17.6629 10.3128 17.7656 10.0648 17.7656 9.80625V8.70937C17.7651 8.52603 17.7127 8.34657 17.6146 8.19169C17.5165 8.03681 17.3766 7.91281 17.211 7.83401C17.2339 7.6493 17.2461 7.46344 17.2476 7.27734C17.2476 5.39955 16.5624 2.25 11.9765 2.25C7.39067 2.25 6.70542 5.39955 6.70542 7.27734C6.70685 7.46344 6.71896 7.6493 6.74168 7.83401C6.5762 7.91286 6.43636 8.03687 6.3383 8.19175C6.24024 8.34663 6.18795 8.52606 6.18746 8.70937V9.80625C6.18746 10.0648 6.29018 10.3128 6.47303 10.4957C6.65587 10.6785 6.90387 10.7812 7.16246 10.7812H8.34678C8.472 11.6856 9.10849 12.5018 9.84432 13.103V14.5505L6.13353 15.5953C5.62161 15.7218 5.16026 16.0009 4.81073 16.3958C4.46119 16.7906 4.24 17.2823 4.17652 17.8058L3.75209 21.4097C3.74265 21.4899 3.76546 21.5706 3.81551 21.634C3.86556 21.6975 3.93876 21.7384 4.019 21.7479C4.03082 21.7493 4.04273 21.75 4.05464 21.75C4.12922 21.7499 4.20117 21.7225 4.25688 21.6729C4.31258 21.6233 4.34817 21.555 4.35689 21.481L4.78132 17.8771C4.83032 17.475 5.00084 17.0974 5.27012 16.7947C5.5394 16.4921 5.89461 16.2788 6.28831 16.1834L8.15817 15.6578L9.89489 18.2628C9.91862 18.2983 9.94954 18.3285 9.98565 18.3512C10.0218 18.374 10.0623 18.389 10.1045 18.3951C10.119 18.3974 10.1337 18.3985 10.1484 18.3984C10.2196 18.3985 10.2886 18.3736 10.3434 18.3281L11.6718 17.2208V19.3055C11.6718 19.3863 11.7039 19.4638 11.7611 19.5209C11.8182 19.5781 11.8957 19.6102 11.9765 19.6102C12.0573 19.6102 12.1348 19.5781 12.192 19.5209C12.2491 19.4638 12.2812 19.3863 12.2812 19.3055V17.2208L13.6096 18.3281C13.6644 18.3736 13.7334 18.3985 13.8046 18.3984C13.8193 18.3985 13.834 18.3974 13.8485 18.3951C13.8908 18.389 13.9313 18.374 13.9674 18.3512C14.0035 18.3285 14.0344 18.2983 14.0581 18.2628L15.7949 15.6562L17.6742 16.1861C18.0658 16.2826 18.4188 16.4962 18.6862 16.7982C18.9535 17.1003 19.1226 17.4766 19.1708 17.8771L19.5949 21.481C19.6037 21.5552 19.6394 21.6237 19.6954 21.6733C19.7514 21.7229 19.8236 21.7502 19.8984 21.75C19.9104 21.75 19.9224 21.7493 19.9343 21.7479C20.0146 21.7384 20.0878 21.6975 20.1378 21.634C20.1879 21.5706 20.2107 21.4899 20.2012 21.4097L19.7765 17.8058ZM8.34251 7.73437H8.23953C8.32027 5.03698 9.48356 3.77344 11.8879 3.77344C14.1602 3.77344 15.3232 4.90261 15.5136 7.30324C15.4383 6.98444 15.2571 6.70061 14.9996 6.49811C14.7421 6.29562 14.4235 6.18643 14.0959 6.18839C13.6743 6.2012 13.2604 6.30426 12.882 6.49064C12.6009 6.63418 12.2924 6.71623 11.9771 6.73134C11.6618 6.71623 11.3533 6.63418 11.0722 6.49064C10.6938 6.30426 10.2799 6.2012 9.85833 6.18839C8.81539 6.18839 8.43117 7.07716 8.34251 7.73437ZM17.1562 9.80625C17.1562 9.90322 17.1177 9.99622 17.0491 10.0648C16.9805 10.1334 16.8875 10.1719 16.7906 10.1719H15.6328V8.34375H16.7906C16.8875 8.34375 16.9805 8.38227 17.0491 8.45084C17.1177 8.51941 17.1562 8.6124 17.1562 8.70937V9.80625ZM11.9765 2.85937C15.8293 2.85937 16.6382 5.26153 16.6382 7.27734C16.6373 7.43008 16.6279 7.58266 16.6102 7.73437H16.1453C16.0593 4.66312 14.6663 3.16406 11.8879 3.16406C9.10941 3.16406 7.71699 4.66312 7.63046 7.73437H7.34314C7.32545 7.58266 7.3161 7.43008 7.3151 7.27734C7.3148 5.26153 8.12374 2.85937 11.9765 2.85937ZM6.79683 9.80625V8.70937C6.79683 8.6124 6.83535 8.51941 6.90392 8.45084C6.97249 8.38227 7.06549 8.34375 7.16246 8.34375H8.32027V10.1719H7.16246C7.06549 10.1719 6.97249 10.1334 6.90392 10.0648C6.83535 9.99622 6.79683 9.90322 6.79683 9.80625ZM8.92964 10.4629V8.03906C8.92964 7.98818 8.94701 6.79685 9.85772 6.79685C10.1971 6.81097 10.5295 6.89751 10.8327 7.05066C11.1884 7.22792 11.5781 7.32654 11.9753 7.3398C12.3725 7.32654 12.7622 7.22792 13.1179 7.05066C13.4211 6.89751 13.7535 6.81097 14.0929 6.79685C15.006 6.79777 15.0234 7.98909 15.0234 8.03906V10.2654L13.5859 10.8044C13.4469 10.6423 13.2554 10.5343 13.0448 10.4993C12.8342 10.4643 12.6179 10.5045 12.434 10.613C12.2502 10.7215 12.1103 10.8912 12.039 11.0924C11.9678 11.2937 11.9696 11.5136 12.0443 11.7136C12.1189 11.9137 12.2616 12.081 12.4473 12.1864C12.633 12.2917 12.8498 12.3284 13.0598 12.2898C13.2698 12.2513 13.4595 12.1401 13.5957 11.9756C13.7319 11.8112 13.8059 11.6041 13.8046 11.3906C13.8046 11.3848 13.8031 11.3797 13.8028 11.3739L14.9509 10.9433C14.5636 12.3525 12.6142 13.5234 11.9835 13.5234C11.2788 13.5234 8.92964 12.0768 8.92964 10.4635V10.4629ZM13.1953 11.3906C13.1953 11.4509 13.1774 11.5098 13.1439 11.5599C13.1104 11.61 13.0629 11.6491 13.0072 11.6721C12.9515 11.6952 12.8902 11.7012 12.8311 11.6895C12.772 11.6777 12.7177 11.6487 12.6751 11.6061C12.6325 11.5635 12.6035 11.5092 12.5917 11.4501C12.58 11.391 12.586 11.3297 12.6091 11.274C12.6321 11.2184 12.6712 11.1708 12.7213 11.1373C12.7714 11.1038 12.8303 11.0859 12.8906 11.0859C12.9714 11.0859 13.0489 11.118 13.106 11.1752C13.1632 11.2323 13.1953 11.3098 13.1953 11.3906ZM11.9835 14.1328C12.5297 14.0658 13.0507 13.8645 13.5 13.5469V14.616L11.9765 16.1395L10.4531 14.616V13.542C10.9066 13.8623 11.4324 14.0653 11.9835 14.1328ZM10.2139 17.6428L8.77486 15.4841L10.0899 15.1145L11.5253 16.5499L10.2139 17.6428ZM13.7391 17.6428L12.429 16.5499L13.8644 15.1145L15.1794 15.4841L13.7391 17.6428Z" fill="#181513"/>
<path d="M11.9766 20.2266C11.8958 20.2266 11.8183 20.2587 11.7611 20.3158C11.704 20.3729 11.6719 20.4504 11.6719 20.5312V21.4453C11.6719 21.5261 11.704 21.6036 11.7611 21.6608C11.8183 21.7179 11.8958 21.75 11.9766 21.75C12.0574 21.75 12.1349 21.7179 12.192 21.6608C12.2491 21.6036 12.2812 21.5261 12.2812 21.4453V20.5312C12.2812 20.4504 12.2491 20.3729 12.192 20.3158C12.1349 20.2587 12.0574 20.2266 11.9766 20.2266Z" fill="#181513"/>
</svg>
